PathFileType	4	(X/Y/Z)	ptf.trc
DataRate	CameraRate	NumFrames	NumMarkers	Units	OrigDataRate	OrigDataStartFrame	OrigNumFrames
60.00	60.00	6	39	m	60.00	57	151
Frame#	Time	Sternum				R.Acromium				L.Acromium				Top.Head				R.ASIS				L.ASIS				V.Sacral				R.Thigh.Upper				R.Thigh.Front				R.Thigh.Rear				R.Knee.Lat				R.Knee.Med				R.Shank.Upper				R.Shank.Front				R.Shank.Rear				R.Ankle.Lat				R.Ankle.Med				R.Heel				R.Midfoot.Sup				R.Midfoot.Lat				R.Toe.Lat				R.Toe.Med				R.Toe.Tip				L.Thigh.Upper				L.Thigh.Front				L.Thigh.Rear				L.Knee.Lat				L.Knee.Med				L.Shank.Upper				L.Shank.Front				L.Shank.Rear				L.Ankle.Lat				L.Ankle.Med				L.Heel				L.Midfoot.Sup				L.Midfoot.Lat				L.Toe.Lat				L.Toe.Med				L.Toe.Tip				
		X1	Y1	Z1		X2	Y2	Z2		X3	Y3	Z3		X4	Y4	Z4		X5	Y5	Z5		X6	Y6	Z6		X7	Y7	Z7		X8	Y8	Z8		X9	Y9	Z9		X10	Y10	Z10		X11	Y11	Z11		X12	Y12	Z12		X13	Y13	Z13		X14	Y14	Z14		X15	Y15	Z15		X16	Y16	Z16		X17	Y17	Z17		X18	Y18	Z18		X19	Y19	Z19		X20	Y20	Z20		X21	Y21	Z21		X22	Y22	Z22		X23	Y23	Z23		X24	Y24	Z24		X25	Y25	Z25		X26	Y26	Z26		X27	Y27	Z27		X28	Y28	Z28		X29	Y29	Z29		X30	Y30	Z30		X31	Y31	Z31		X32	Y32	Z32		X33	Y33	Z33		X34	Y34	Z34		X35	Y35	Z35		X36	Y36	Z36		X37	Y37	Z37		X38	Y38	Z38		X39	Y39	Z39		
57	0.933333	0.665344	1.39404	0.0483122		0.570055	1.53035	0.222281		0.571184	1.5533	-0.117813		0.714408	1.78019	0.0690964		0.625776	1.08193	0.16851		0.622122	1.06833	-0.0933236		0.426363	1.06566	0.0529103		0.609483	0.754377	0.217565		0.684225	0.704977	0.12742		0.616104	0.633633	0.203702		0.590296	0.544545	0.178737		0.603386	0.532844	0.0575578		0.561023	0.459086	0.182986		0.63624	0.416116	0.134907		0.565034	0.37235	0.190307		0.534095	0.0899284	0.153953		0.552871	0.105787	0.066593		0.470205	0.0680403	0.096324		0.615662	0.0826151	0.0725293		0.602908	0.0534938	0.177036		0.691756	0.0288924	0.190388		0.701718	0.0514542	0.0839634		0.760229	0.0491916	0.119924		0.604381	0.781206	-0.158695		0.708315	0.766029	-0.108145		0.632646	0.67488	-0.151412		0.652176	0.543115	-0.141925		0.682916	0.542967	-0.0298077		0.611525	0.48553	-0.155005		0.612154	0.411896	-0.109292		0.565825	0.472328	-0.158271		0.344263	0.25244	-0.109003		0.38377	0.250586	-0.0233229		0.292211	0.295419	-0.0450909		0.41152	0.168483	-0.0373272		0.374175	0.173168	-0.130322		0.395273	0.109134	-0.140624		0.432656	0.105791	-0.0440971		0.45827	0.0665153	-0.0734698		
58	0.95	0.663435	1.39542	0.0486543		0.569089	1.532	0.222919		0.568768	1.55466	-0.117197		0.713111	1.78151	0.0688914		0.621758	1.08204	0.171246		0.621394	1.07079	-0.0907241		0.423787	1.06734	0.0529867		0.600812	0.753384	0.217866		0.674316	0.702382	0.127595		0.604645	0.632535	0.203862		0.576773	0.544093	0.178822		0.589478	0.532231	0.0576182		0.546063	0.458939	0.18302		0.620806	0.415211	0.134884		0.549177	0.372162	0.190302		0.515292	0.0900928	0.153844		0.534187	0.105794	0.0664804		0.451372	0.068302	0.0961617		0.59689	0.082478	0.0725046		0.583952	0.0534977	0.177028		0.672722	0.0286817	0.190499		0.682854	0.0511077	0.0840612		0.741322	0.0487318	0.120086		0.610028	0.785168	-0.156078		0.713651	0.773478	-0.10399		0.641448	0.679807	-0.147787		0.664891	0.54876	-0.137269		0.694027	0.550158	-0.0247327		0.627189	0.488828	-0.150736		0.631314	0.415437	-0.104814		0.58237	0.473035	-0.154657		0.37297	0.240967	-0.108135		0.411206	0.241533	-0.0218617		0.317144	0.28031	-0.044988		0.444605	0.161688	-0.0354829		0.408446	0.163999	-0.129034		0.433965	0.101549	-0.139052		0.470019	0.100573	-0.0419681		0.498664	0.0631609	-0.0709707		
59	0.966667	0.66203	1.39624	0.0493667		0.567856	1.53323	0.223408		0.567816	1.55549	-0.116734		0.712517	1.78225	0.0691889		0.618847	1.08232	0.172857		0.620105	1.07212	-0.0891541		0.421585	1.06869	0.0532925		0.592287	0.752329	0.21817		0.664403	0.699558	0.127796		0.592997	0.631438	0.204021		0.562843	0.543773	0.178891		0.575171	0.531734	0.057666		0.530648	0.458904	0.183026		0.605011	0.414543	0.134881		0.533011	0.372102	0.190286		0.496688	0.0903451	0.153756		0.515721	0.105904	0.066397		0.432723	0.0687495	0.0960193		0.578317	0.0823659	0.0724988		0.565166	0.0535051	0.177029		0.653829	0.0283669	0.190605		0.664151	0.0506826	0.0841628		0.722574	0.0481128	0.120248		0.614501	0.788386	-0.153726		0.7178	0.779821	-0.100399		0.648748	0.68398	-0.144582		0.675711	0.553686	-0.133183		0.70349	0.556387	-0.020328		0.64132	0.491242	-0.146997		0.649643	0.418276	-0.100967		0.597682	0.472556	-0.151476		0.403309	0.227306	-0.107441		0.44032	0.230365	-0.0206875		0.343913	0.262299	-0.0449271		0.47966	0.153387	-0.0340259		0.444603	0.153283	-0.128024		0.47479	0.0929161	-0.137834		0.509598	0.0943344	-0.0403019		0.54129	0.0592206	-0.0690082		
60	0.983333	0.661002	1.39705	0.0496712		0.567183	1.53412	0.223833		0.566408	1.55619	-0.116321		0.711476	1.78308	0.0691561		0.617043	1.08314	0.174537		0.620239	1.07385	-0.0874908		0.420705	1.0692	0.0534976		0.584424	0.751058	0.218547		0.654997	0.696253	0.128166		0.581457	0.630225	0.204203		0.548668	0.543562	0.1789		0.560761	0.531342	0.0576693		0.51481	0.459005	0.182892		0.588904	0.414063	0.134873		0.516461	0.372184	0.190128		0.477941	0.0907406	0.153436		0.497263	0.106173	0.0661184		0.41401	0.0694168	0.0955397		0.559724	0.0823549	0.0723875		0.546173	0.0535908	0.176893		0.634685	0.0280494	0.190705		0.645382	0.0502809	0.0842817		0.703699	0.0474547	0.120517		0.619138	0.790929	-0.151669		0.722138	0.784596	-0.0974601		0.655351	0.687252	-0.14184		0.684774	0.557557	-0.129717		0.711556	0.561221	-0.0166479		0.653917	0.492522	-0.143828		0.667046	0.420262	-0.097805		0.611788	0.470741	-0.148754		0.435226	0.21201	-0.106899		0.471084	0.217572	-0.0197862		0.372574	0.241815	-0.0448061		0.516636	0.144267	-0.0330476		0.482563	0.141752	-0.127374		0.517656	0.08409	-0.137135		0.551341	0.0878788	-0.0392723		0.586049	0.0555974	-0.067815		
61	1	0.659678	1.39645	0.049449		0.567413	1.53409	0.223998		0.564983	1.55593	-0.116163		0.712084	1.78225	0.0684022		0.6139	1.08313	0.175832		0.618177	1.07472	-0.0862111		0.418077	1.06931	0.0539453		0.576484	0.749726	0.218787		0.645755	0.693421	0.12832		0.570702	0.629015	0.204269		0.5359	0.543176	0.178844		0.547698	0.530854	0.057594		0.500563	0.459057	0.182732		0.574147	0.413296	0.134702		0.501206	0.372218	0.189901		0.459438	0.0912676	0.152981		0.478966	0.106542	0.0656816		0.395483	0.0701782	0.09498		0.541293	0.0824681	0.0720726		0.527435	0.0538308	0.176573		0.615811	0.027914	0.190555		0.626789	0.05003	0.0841361		0.685031	0.0469738	0.120474		0.620808	0.792914	-0.150211		0.723699	0.788677	-0.0955906		0.658921	0.689964	-0.139924		0.690723	0.56088	-0.127289		0.716994	0.565388	-0.0141303		0.663916	0.49318	-0.141614		0.682667	0.422087	-0.095719		0.623732	0.468048	-0.146823		0.468669	0.195641	-0.106609		0.503511	0.203837	-0.0192921		0.403326	0.219554	-0.0446903		0.55535	0.134986	-0.0326539		0.522064	0.129955	-0.12716		0.562134	0.0756498	-0.137008		0.594905	0.0818967	-0.0389613		0.632447	0.0529327	-0.0674764		
62	1.01667	0.658109	1.39602	0.049432		0.566354	1.53399	0.223993		0.563354	1.55546	-0.116187		0.711112	1.78177	0.0678714		0.611368	1.0831	0.177019		0.616833	1.07467	-0.0850007		0.41611	1.06908	0.0542542		0.568723	0.748283	0.219214		0.636656	0.690455	0.128693		0.559978	0.627779	0.204466		0.52309	0.542871	0.178855		0.534675	0.530486	0.0575913		0.486228	0.459222	0.182578		0.55934	0.41267	0.134587		0.485864	0.372374	0.189654		0.440913	0.0919622	0.152377		0.460722	0.107105	0.0651178		0.376972	0.0711662	0.094214		0.522896	0.0827396	0.0716683		0.508638	0.0541946	0.17614		0.596852	0.0278505	0.190348		0.608203	0.0498877	0.0839527		0.666338	0.0465561	0.120437		0.621453	0.793767	-0.149181		0.724526	0.79105	-0.0948094		0.660965	0.691364	-0.138723		0.694521	0.56275	-0.125831		0.72101	0.567907	-0.0127515		0.672027	0.492492	-0.140277		0.696976	0.42311	-0.0947168		0.634182	0.463973	-0.145555		0.503539	0.1789	-0.106389		0.537658	0.189727	-0.0190735		0.436379	0.196433	-0.0442496		0.595509	0.126032	-0.0328849		0.562651	0.1185	-0.127374		0.607493	0.0681343	-0.137578		0.639735	0.0768117	-0.039541		0.679712	0.0515521	-0.0682667		
